<?xml version="1.0" encoding="utf-8"?>
<!-- Generator: Adobe Illustrator 27.5.0, SVG Export Plug-In . SVG Version: 6.00 Build 0)  -->
<svg version="1.1" xmlns="http://www.w3.org/2000/svg" xmlns:xlink="http://www.w3.org/1999/xlink" x="0px" y="0px"
	 viewBox="0 0 1200 600" style="enable-background:new 0 0 1200 600;" xml:space="preserve">
<g id="Background">
	<rect transform="matrix(-1 -1.224647e-16 1.224647e-16 -1 1200 600)" style="fill:#F2F9FF;" width="1200" height="600"/>
</g>
<g id="Graphic_elements">
	<g>
		<defs>
			<rect id="SVGID_1_" transform="matrix(-1 -1.224647e-16 1.224647e-16 -1 1200 600)" width="1200" height="600"/>
		</defs>
		<clipPath id="SVGID_00000104691977912623023530000013785272757367566979_">
			<use xlink:href="#SVGID_1_"  style="overflow:visible;"/>
		</clipPath>
		
			<linearGradient id="SVGID_00000119812354620805535190000009190998080443332797_" gradientUnits="userSpaceOnUse" x1="1030.1819" y1="532.0027" x2="1250.4264" y2="532.0027">
			<stop  offset="0" style="stop-color:#FFFFFF"/>
			<stop  offset="1" style="stop-color:#5494C6"/>
		</linearGradient>
		
			<polygon style="opacity:0.58;clip-path:url(#SVGID_00000104691977912623023530000013785272757367566979_);fill:url(#SVGID_00000119812354620805535190000009190998080443332797_);" points="
			1205.962,172.386 1007.465,396.606 1007.465,891.619 1205.962,667.4 		"/>
		
			<linearGradient id="SVGID_00000140724797036736112010000000497280051496085694_" gradientUnits="userSpaceOnUse" x1="5137.4199" y1="648.8411" x2="5257.4746" y2="648.8411" gradientTransform="matrix(-1 0 0 1 6176.7734 0)">
			<stop  offset="0" style="stop-color:#FFFFFF"/>
			<stop  offset="1" style="stop-color:#5494C6"/>
		</linearGradient>
		
			<polygon style="clip-path:url(#SVGID_00000104691977912623023530000013785272757367566979_);fill:url(#SVGID_00000140724797036736112010000000497280051496085694_);" points="
			943.536,452.816 1051.736,575.037 1051.736,844.867 943.536,722.646 		"/>
		<g style="clip-path:url(#SVGID_00000104691977912623023530000013785272757367566979_);">
			<polygon style="fill:#70B5E0;" points="1129.771,486.015 1130.939,483.201 1130.939,196.932 1129.771,199.746 			"/>
			<polygon style="fill:#76BAE3;" points="1122.677,493.109 1123.845,490.295 1123.845,204.026 1122.677,206.84 			"/>
			<polygon style="fill:#7DBEE5;" points="1115.583,500.203 1116.751,497.389 1116.751,211.12 1115.583,213.934 			"/>
			<polygon style="fill:#83C3E8;" points="1108.489,507.297 1109.657,504.483 1109.657,218.214 1108.489,221.028 			"/>
			<polygon style="fill:#89C8EB;" points="1101.394,514.391 1102.563,511.577 1102.563,225.308 1101.394,228.122 			"/>
			<polygon style="fill:#90CDED;" points="1094.3,521.485 1095.469,518.671 1095.469,232.402 1094.3,235.216 			"/>
			<polygon style="fill:#96D1F0;" points="1087.206,528.579 1088.375,525.765 1088.375,239.496 1087.206,242.31 			"/>
			<polygon style="fill:#9DD6F2;" points="1080.112,535.673 1081.281,532.859 1081.281,246.59 1080.112,249.404 			"/>
			<polygon style="fill:#A3DBF5;" points="1073.018,542.767 1074.186,539.953 1074.186,253.684 1073.018,256.498 			"/>
			<polygon style="fill:#A9E0F8;" points="1065.924,549.861 1067.092,547.047 1067.092,260.778 1065.924,263.592 			"/>
			<polygon style="fill:#B0E4FA;" points="1058.83,556.955 1059.998,554.141 1059.998,267.872 1058.83,270.686 			"/>
			<polygon style="fill:#B6E9FD;" points="1051.736,564.049 1052.904,561.235 1052.904,274.966 1051.736,277.78 			"/>
		</g>
		
			<linearGradient id="SVGID_00000162329466091223950730000009293859574957451669_" gradientUnits="userSpaceOnUse" x1="22.7168" y1="156.2801" x2="242.9612" y2="156.2801">
			<stop  offset="0" style="stop-color:#FFFFFF"/>
			<stop  offset="1" style="stop-color:#5494C6"/>
		</linearGradient>
		
			<polygon style="opacity:0.58;clip-path:url(#SVGID_00000104691977912623023530000013785272757367566979_);fill:url(#SVGID_00000162329466091223950730000009293859574957451669_);" points="
			198.497,-203.336 0,20.883 0,515.896 198.497,291.677 		"/>
		
			<linearGradient id="SVGID_00000141445615224344157000000006105020535857482149_" gradientUnits="userSpaceOnUse" x1="5955.4922" y1="-7.4962" x2="6075.5464" y2="-7.4962" gradientTransform="matrix(-1 0 0 1 6176.7734 0)">
			<stop  offset="0" style="stop-color:#FFFFFF"/>
			<stop  offset="1" style="stop-color:#5494C6"/>
		</linearGradient>
		
			<polygon style="clip-path:url(#SVGID_00000104691977912623023530000013785272757367566979_);fill:url(#SVGID_00000141445615224344157000000006105020535857482149_);" points="
			125.464,-203.522 233.664,-81.301 233.664,188.529 125.464,66.308 		"/>
		<g style="clip-path:url(#SVGID_00000104691977912623023530000013785272757367566979_);">
			<polygon style="fill:#70B5E0;" points="21.214,163.846 20.046,161.032 20.046,-125.237 21.214,-122.423 			"/>
			<polygon style="fill:#76BAE3;" points="28.308,170.94 27.14,168.126 27.14,-118.143 28.308,-115.329 			"/>
			<polygon style="fill:#7DBEE5;" points="35.402,178.034 34.234,175.22 34.234,-111.049 35.402,-108.235 			"/>
			<polygon style="fill:#83C3E8;" points="42.496,185.128 41.328,182.314 41.328,-103.955 42.496,-101.141 			"/>
			<polygon style="fill:#89C8EB;" points="49.59,192.222 48.422,189.408 48.422,-96.861 49.59,-94.047 			"/>
			<polygon style="fill:#90CDED;" points="56.684,199.316 55.516,196.502 55.516,-89.767 56.684,-86.953 			"/>
			<polygon style="fill:#96D1F0;" points="63.778,206.41 62.61,203.596 62.61,-82.673 63.778,-79.859 			"/>
			<polygon style="fill:#9DD6F2;" points="70.872,213.504 69.704,210.69 69.704,-75.579 70.872,-72.765 			"/>
			<polygon style="fill:#A3DBF5;" points="77.966,220.598 76.798,217.784 76.798,-68.485 77.966,-65.671 			"/>
			<polygon style="fill:#A9E0F8;" points="85.061,227.692 83.892,224.878 83.892,-61.391 85.061,-58.577 			"/>
			<polygon style="fill:#B0E4FA;" points="92.155,234.786 90.986,231.972 90.986,-54.297 92.155,-51.483 			"/>
			<polygon style="fill:#B6E9FD;" points="99.248,241.88 98.08,239.066 98.08,-47.203 99.248,-44.389 			"/>
		</g>
	</g>
</g>
</svg>
